<?xml version="1.0" encoding="UTF-8"?>
<!DOCTYPE svg PUBLIC "-//W3C//DTD SVG 1.1//EN" "http://www.w3.org/Graphics/SVG/1.1/DTD/svg11.dtd">
<svg xmlns="http://www.w3.org/2000/svg" version="1.1" width="440px" height="116px" style="shape-rendering:geometricPrecision; text-rendering:geometricPrecision; image-rendering:optimizeQuality; fill-rule:evenodd; clip-rule:evenodd" xmlns:xlink="http://www.w3.org/1999/xlink">
<g><path style="opacity:0.884" fill="#f4821f" d="M 58.5,1.5 C 68.6044,1.76502 72.4378,6.76502 70,16.5C 63.0787,23.5669 57.0787,22.9002 52,14.5C 51.3333,12.5 51.3333,10.5 52,8.5C 53.6941,5.64238 55.8607,3.30904 58.5,1.5 Z"/></g>
<g><path style="opacity:0.922" fill="#f4821f" d="M 113.5,8.5 C 118.099,8.20001 122.599,8.53335 127,9.5C 135.427,22.6815 143.093,36.3481 150,50.5C 149.612,36.5304 149.446,22.5304 149.5,8.5C 153.167,8.5 156.833,8.5 160.5,8.5C 160.5,28.1667 160.5,47.8333 160.5,67.5C 156.486,67.6655 152.486,67.4988 148.5,67C 139.702,53.2417 131.535,39.075 124,24.5C 123.5,38.8295 123.333,53.1628 123.5,67.5C 120.167,67.5 116.833,67.5 113.5,67.5C 113.5,47.8333 113.5,28.1667 113.5,8.5 Z"/></g>
<g><path style="opacity:0.934" fill="#f4821f" d="M 172.5,8.5 C 183.833,8.5 195.167,8.5 206.5,8.5C 206.5,11.8333 206.5,15.1667 206.5,18.5C 198.833,18.5 191.167,18.5 183.5,18.5C 183.5,23.1667 183.5,27.8333 183.5,32.5C 190.833,32.5 198.167,32.5 205.5,32.5C 205.5,35.8333 205.5,39.1667 205.5,42.5C 198.167,42.5 190.833,42.5 183.5,42.5C 183.5,47.8333 183.5,53.1667 183.5,58.5C 191.833,58.5 200.167,58.5 208.5,58.5C 208.5,61.5 208.5,64.5 208.5,67.5C 196.5,67.5 184.5,67.5 172.5,67.5C 172.5,47.8333 172.5,28.1667 172.5,8.5 Z"/></g>
<g><path style="opacity:0.928" fill="#f4821f" d="M 211.5,8.5 C 226.5,8.5 241.5,8.5 256.5,8.5C 256.5,11.8333 256.5,15.1667 256.5,18.5C 250.833,18.5 245.167,18.5 239.5,18.5C 239.5,34.8333 239.5,51.1667 239.5,67.5C 235.833,67.5 232.167,67.5 228.5,67.5C 228.5,51.1667 228.5,34.8333 228.5,18.5C 222.833,18.5 217.167,18.5 211.5,18.5C 211.5,15.1667 211.5,11.8333 211.5,8.5 Z"/></g>
<g><path style="opacity:0.967" fill="#f4821f" d="M 263.5,8.5 C 267.167,8.5 270.833,8.5 274.5,8.5C 274.5,28.1667 274.5,47.8333 274.5,67.5C 270.833,67.5 267.167,67.5 263.5,67.5C 263.5,47.8333 263.5,28.1667 263.5,8.5 Z"/></g>
<g><path style="opacity:0.918" fill="#f4821f" d="M 284.5,8.5 C 298.167,8.5 311.833,8.5 325.5,8.5C 325.816,11.9783 325.316,15.3117 324,18.5C 314.833,31.6667 305.667,44.8333 296.5,58C 306.494,58.4998 316.494,58.6665 326.5,58.5C 326.5,61.5 326.5,64.5 326.5,67.5C 311.5,67.5 296.5,67.5 281.5,67.5C 281.211,64.3508 281.711,61.3508 283,58.5C 292.167,45.3333 301.333,32.1667 310.5,19C 301.84,18.5002 293.173,18.3336 284.5,18.5C 284.5,15.1667 284.5,11.8333 284.5,8.5 Z"/></g>
<g><path style="opacity:0.934" fill="#f4821f" d="M 334.5,8.5 C 345.833,8.5 357.167,8.5 368.5,8.5C 368.5,11.8333 368.5,15.1667 368.5,18.5C 360.833,18.5 353.167,18.5 345.5,18.5C 345.5,23.1667 345.5,27.8333 345.5,32.5C 352.833,32.5 360.167,32.5 367.5,32.5C 367.5,35.8333 367.5,39.1667 367.5,42.5C 360.167,42.5 352.833,42.5 345.5,42.5C 345.5,47.8333 345.5,53.1667 345.5,58.5C 353.833,58.5 362.167,58.5 370.5,58.5C 370.5,61.5 370.5,64.5 370.5,67.5C 358.5,67.5 346.5,67.5 334.5,67.5C 334.5,47.8333 334.5,28.1667 334.5,8.5 Z"/></g>
<g><path style="opacity:0.922" fill="#f4821f" d="M 379.5,8.5 C 384.099,8.20001 388.599,8.53335 393,9.5C 401.427,22.6815 409.093,36.3481 416,50.5C 415.612,36.5304 415.446,22.5304 415.5,8.5C 419.167,8.5 422.833,8.5 426.5,8.5C 426.5,28.1667 426.5,47.8333 426.5,67.5C 422.486,67.6655 418.486,67.4988 414.5,67C 405.702,53.2417 397.535,39.075 390,24.5C 389.5,38.8295 389.333,53.1628 389.5,67.5C 386.167,67.5 382.833,67.5 379.5,67.5C 379.5,47.8333 379.5,28.1667 379.5,8.5 Z"/></g>
<g><path style="opacity:0.554" fill="#637882" d="M 432.5,8.5 C 438.589,9.70079 439.923,12.8675 436.5,18C 430.507,19.6683 428.007,17.5017 429,11.5C 429.985,10.1859 431.152,9.18586 432.5,8.5 Z"/></g>
<g><path style="opacity:0.879" fill="#637882" d="M 31.5,15.5 C 40.5618,15.6416 43.7285,19.9749 41,28.5C 36.6667,33.8333 32.3333,33.8333 28,28.5C 27.1251,27.1268 26.6251,25.6268 26.5,24C 27.1366,20.5369 28.8033,17.7035 31.5,15.5 Z"/></g>
<g><path style="opacity:0.861" fill="#f4821f" d="M 73.5,19.5 C 74.552,19.3505 75.552,19.5172 76.5,20C 61.413,41.4348 57.413,64.7682 64.5,90C 64.1667,90.5 63.8333,91 63.5,91.5C 51.3858,71.7599 48.5524,50.7599 55,28.5C 61.3038,25.5971 67.4705,22.5971 73.5,19.5 Z"/></g>
<g><path style="opacity:0.788" fill="#f4821f" d="M 80.5,25.5 C 89.3002,25.4513 94.8002,29.7847 97,38.5C 98.4712,44.4308 98.8045,50.4308 98,56.5C 95.6269,58.8066 92.7935,60.4732 89.5,61.5C 89.5131,55.6231 89.3464,49.6231 89,43.5C 86.1548,30.7165 80.1548,28.7165 71,37.5C 69.5894,40.579 68.0894,43.579 66.5,46.5C 66.1667,46 65.8333,45.5 65.5,45C 68.2505,36.6167 73.2505,30.1167 80.5,25.5 Z"/></g>
<g><path style="opacity:0.837" fill="#637882" d="M 7.5,30.5 C 14.8269,29.3293 17.9936,32.3293 17,39.5C 13.1359,44.7194 9.13593,44.7194 5,39.5C 4.13065,36.0072 4.96399,33.0072 7.5,30.5 Z"/></g>
<g><path style="opacity:0.906" fill="#637882" d="M 45.5,31.5 C 46.1386,32.0968 46.472,32.9302 46.5,34C 44.1025,46.8074 43.9358,59.6407 46,72.5C 47.4425,81.555 51.6092,89.055 58.5,95C 66.0417,98.372 73.0417,97.372 79.5,92C 86.6534,84.1926 92.1534,75.3593 96,65.5C 92.892,80.2032 85.7253,92.7032 74.5,103C 58.3549,113.947 45.1882,111.114 35,94.5C 27.6941,77.6864 25.5275,60.1864 28.5,42C 28.8333,41.1667 29.1667,40.3333 29.5,39.5C 35.1731,37.3301 40.5065,34.6635 45.5,31.5 Z"/></g>
<g><path style="opacity:0.866" fill="#637882" d="M 20.5,42.5 C 18.5339,62.5109 22.3672,81.5109 32,99.5C 34.1386,102.939 36.6386,106.106 39.5,109C 39,109.167 38.5,109.333 38,109.5C 17.6291,94.6424 7.1291,74.6424 6.5,49.5C 11.4459,47.531 16.1126,45.1976 20.5,42.5 Z"/></g>
<g><path style="opacity:0.739" fill="#637882" d="M 148.5,76.5 C 149.833,76.5 151.167,76.5 152.5,76.5C 152.187,79.2469 152.52,81.9135 153.5,84.5C 163.12,82.6417 166.62,86.6417 164,96.5C 160.975,101.397 156.975,102.397 152,99.5C 150.989,100.337 149.822,100.67 148.5,100.5C 148.5,92.5 148.5,84.5 148.5,76.5 Z M 155.5,86.5 C 159.109,86.775 161.109,88.775 161.5,92.5C 161.223,95.6829 159.556,97.6829 156.5,98.5C 153.674,97.5177 152.34,95.5177 152.5,92.5C 152.467,89.8984 153.467,87.8984 155.5,86.5 Z"/></g>
<g><path style="opacity:0.733" fill="#637882" d="M 333.5,76.5 C 334.833,76.5 336.167,76.5 337.5,76.5C 337.5,84.5 337.5,92.5 337.5,100.5C 336.167,100.5 334.833,100.5 333.5,100.5C 333.5,92.5 333.5,84.5 333.5,76.5 Z"/></g>
<g><path style="opacity:0.72" fill="#637882" d="M 119.5,77.5 C 123.226,77.1774 126.893,77.5108 130.5,78.5C 129.783,81.466 127.949,82.1327 125,80.5C 117.56,81.6915 114.893,86.0248 117,93.5C 120.219,97.4888 124.219,98.4888 129,96.5C 129.5,97.5 130,98.5 130.5,99.5C 117.185,103.356 111.352,98.3563 113,84.5C 114.694,81.6424 116.861,79.309 119.5,77.5 Z"/></g>
<g><path style="opacity:0.714" fill="#637882" d="M 198.5,77.5 C 202.048,77.0949 205.381,77.5949 208.5,79C 207.508,81.2859 205.674,81.7859 203,80.5C 200.78,80.5446 199.28,81.5446 198.5,83.5C 200.607,86.0609 203.274,87.8942 206.5,89C 210.305,92.6176 210.305,96.2843 206.5,100C 204.5,100.5 202.5,101 200.5,101.5C 198.547,100.844 196.547,100.511 194.5,100.5C 194.848,96.023 196.848,95.3563 200.5,98.5C 205.857,96.9971 206.523,94.4971 202.5,91C 193.872,88.3038 192.538,83.8038 198.5,77.5 Z"/></g>
<g><path style="opacity:0.714" fill="#637882" d="M 300.5,77.5 C 304.048,77.0949 307.381,77.5949 310.5,79C 309.508,81.2859 307.674,81.7859 305,80.5C 302.78,80.5446 301.28,81.5446 300.5,83.5C 302.607,86.0609 305.274,87.8942 308.5,89C 312.305,92.6176 312.305,96.2843 308.5,100C 306.5,100.5 304.5,101 302.5,101.5C 300.547,100.844 298.547,100.511 296.5,100.5C 296.848,96.023 298.848,95.3563 302.5,98.5C 307.857,96.9971 308.523,94.4971 304.5,91C 295.872,88.3038 294.538,83.8038 300.5,77.5 Z"/></g>
<g><path style="opacity:0.667" fill="#637882" d="M 371.5,77.5 C 372.833,77.5 374.167,77.5 375.5,77.5C 375.5,78.8333 375.5,80.1667 375.5,81.5C 374.167,81.5 372.833,81.5 371.5,81.5C 371.5,80.1667 371.5,78.8333 371.5,77.5 Z"/></g>
<g><path style="opacity:0.83" fill="#637882" d="M 360.5,79.5 C 361.5,79.5 362.5,79.5 363.5,79.5C 363.5,80.8333 363.5,82.1667 363.5,83.5C 365.167,83.5 366.833,83.5 368.5,83.5C 368.5,84.5 368.5,85.5 368.5,86.5C 366.833,86.5 365.167,86.5 363.5,86.5C 363.335,89.8499 363.502,93.1832 364,96.5C 365.23,98.02 366.397,98.8534 367.5,99C 365.794,102.041 363.627,102.207 361,99.5C 360.501,95.1794 360.334,90.8461 360.5,86.5C 359.5,86.5 358.5,86.5 357.5,86.5C 357.5,85.5 357.5,84.5 357.5,83.5C 358.5,83.5 359.5,83.5 360.5,83.5C 360.5,82.1667 360.5,80.8333 360.5,79.5 Z"/></g>
<g><path style="opacity:0.704" fill="#637882" d="M 130.5,83.5 C 131.978,83.238 133.311,83.5713 134.5,84.5C 135.523,88.0774 137.023,91.4107 139,94.5C 140.068,91.129 141.235,87.7957 142.5,84.5C 143.833,83.1667 145.167,83.1667 146.5,84.5C 144.098,90.873 141.598,97.2063 139,103.5C 137.114,106.242 134.614,107.909 131.5,108.5C 131.238,107.022 131.571,105.689 132.5,104.5C 134.375,103.46 135.708,101.96 136.5,100C 134.062,94.6307 132.062,89.1307 130.5,83.5 Z"/></g>
<g><path style="opacity:0.711" fill="#637882" d="M 171.5,83.5 C 179.167,82.5 182.5,85.8333 181.5,93.5C 177.833,93.5 174.167,93.5 170.5,93.5C 170.529,96.6557 172.196,98.3223 175.5,98.5C 177.071,97.6906 178.738,97.3573 180.5,97.5C 180.5,98.5 180.5,99.5 180.5,100.5C 169.84,103.337 165.34,99.3374 167,88.5C 168.025,86.313 169.525,84.6464 171.5,83.5 Z M 172.5,86.5 C 175.55,85.9232 177.55,87.0899 178.5,90C 175.773,90.8184 173.106,90.6517 170.5,89.5C 171.193,88.4822 171.859,87.4822 172.5,86.5 Z"/></g>
<g><path style="opacity:0.697" fill="#637882" d="M 184.5,83.5 C 186.124,83.3601 187.29,84.0267 188,85.5C 189.584,84.1387 191.418,83.472 193.5,83.5C 193.5,84.8333 193.5,86.1667 193.5,87.5C 191.61,87.2965 190.11,87.9632 189,89.5C 188.501,93.1516 188.335,96.8183 188.5,100.5C 187.167,100.5 185.833,100.5 184.5,100.5C 184.5,94.8333 184.5,89.1667 184.5,83.5 Z"/></g>
<g><path style="opacity:0.711" fill="#637882" d="M 216.5,83.5 C 224.167,82.5 227.5,85.8333 226.5,93.5C 222.833,93.5 219.167,93.5 215.5,93.5C 215.529,96.6557 217.196,98.3223 220.5,98.5C 222.071,97.6906 223.738,97.3573 225.5,97.5C 225.5,98.5 225.5,99.5 225.5,100.5C 214.84,103.337 210.34,99.3374 212,88.5C 213.025,86.313 214.525,84.6464 216.5,83.5 Z M 217.5,86.5 C 220.55,85.9232 222.55,87.0899 223.5,90C 220.773,90.8184 218.106,90.6517 215.5,89.5C 216.193,88.4822 216.859,87.4822 217.5,86.5 Z"/></g>
<g><path style="opacity:0.712" fill="#637882" d="M 234.5,83.5 C 236.527,83.3379 238.527,83.5045 240.5,84C 241.731,85.1827 241.731,86.3493 240.5,87.5C 234.198,86.3048 231.698,88.9715 233,95.5C 235.361,98.4424 238.194,99.109 241.5,97.5C 241.5,98.5 241.5,99.5 241.5,100.5C 231.381,102.692 227.215,98.6916 229,88.5C 230.352,86.251 232.185,84.5844 234.5,83.5 Z"/></g>
<g><path style="opacity:0.705" fill="#637882" d="M 244.5,83.5 C 245.833,83.5 247.167,83.5 248.5,83.5C 248.334,87.8461 248.501,92.1794 249,96.5C 251.267,97.9348 253.267,97.6015 255,95.5C 255.499,91.5138 255.666,87.5138 255.5,83.5C 256.833,83.5 258.167,83.5 259.5,83.5C 259.5,89.1667 259.5,94.8333 259.5,100.5C 257.856,100.714 256.356,100.38 255,99.5C 252,102.167 249,102.167 246,99.5C 244.603,94.2919 244.103,88.9586 244.5,83.5 Z"/></g>
<g><path style="opacity:0.697" fill="#637882" d="M 263.5,83.5 C 265.124,83.3601 266.29,84.0267 267,85.5C 268.584,84.1387 270.418,83.472 272.5,83.5C 272.5,84.8333 272.5,86.1667 272.5,87.5C 270.61,87.2965 269.11,87.9632 268,89.5C 267.501,93.1516 267.335,96.8183 267.5,100.5C 266.167,100.5 264.833,100.5 263.5,100.5C 263.5,94.8333 263.5,89.1667 263.5,83.5 Z"/></g>
<g><path style="opacity:0.711" fill="#637882" d="M 277.5,83.5 C 285.167,82.5 288.5,85.8333 287.5,93.5C 283.833,93.5 280.167,93.5 276.5,93.5C 276.529,96.6557 278.196,98.3223 281.5,98.5C 283.071,97.6906 284.738,97.3573 286.5,97.5C 286.5,98.5 286.5,99.5 286.5,100.5C 275.84,103.337 271.34,99.3374 273,88.5C 274.025,86.313 275.525,84.6464 277.5,83.5 Z M 278.5,86.5 C 281.55,85.9232 283.55,87.0899 284.5,90C 281.773,90.8184 279.106,90.6517 276.5,89.5C 277.193,88.4822 277.859,87.4822 278.5,86.5 Z"/></g>
<g><path style="opacity:0.717" fill="#637882" d="M 319.5,83.5 C 328.869,83.8974 332.036,88.5641 329,97.5C 323.626,102.82 318.626,102.487 314,96.5C 312.099,90.3431 313.932,86.0098 319.5,83.5 Z M 320.5,86.5 C 326.035,87.9083 327.535,91.2416 325,96.5C 320.883,98.8568 318.383,97.5234 317.5,92.5C 317.467,89.8984 318.467,87.8984 320.5,86.5 Z"/></g>
<g><path style="opacity:0.705" fill="#637882" d="M 341.5,83.5 C 342.833,83.5 344.167,83.5 345.5,83.5C 345.334,87.8461 345.501,92.1794 346,96.5C 348.267,97.9348 350.267,97.6015 352,95.5C 352.499,91.5138 352.666,87.5138 352.5,83.5C 353.833,83.5 355.167,83.5 356.5,83.5C 356.5,89.1667 356.5,94.8333 356.5,100.5C 354.856,100.714 353.356,100.38 352,99.5C 349,102.167 346,102.167 343,99.5C 341.603,94.2919 341.103,88.9586 341.5,83.5 Z"/></g>
<g><path style="opacity:0.702" fill="#637882" d="M 371.5,83.5 C 372.833,83.5 374.167,83.5 375.5,83.5C 375.5,89.1667 375.5,94.8333 375.5,100.5C 374.167,100.5 372.833,100.5 371.5,100.5C 371.5,94.8333 371.5,89.1667 371.5,83.5 Z"/></g>
<g><path style="opacity:0.717" fill="#637882" d="M 383.5,83.5 C 392.869,83.8974 396.036,88.5641 393,97.5C 387.626,102.82 382.626,102.487 378,96.5C 376.099,90.3431 377.932,86.0098 383.5,83.5 Z M 384.5,86.5 C 390.035,87.9083 391.535,91.2416 389,96.5C 384.883,98.8568 382.383,97.5234 381.5,92.5C 381.467,89.8984 382.467,87.8984 384.5,86.5 Z"/></g>
<g><path style="opacity:0.722" fill="#637882" d="M 397.5,83.5 C 399.124,83.3601 400.29,84.0267 401,85.5C 404.333,82.8333 407.667,82.8333 411,85.5C 412.388,90.3722 412.888,95.3722 412.5,100.5C 411.167,100.5 409.833,100.5 408.5,100.5C 408.666,96.4862 408.499,92.4862 408,88.5C 406,85.8333 404,85.8333 402,88.5C 401.501,92.4862 401.334,96.4862 401.5,100.5C 400.167,100.5 398.833,100.5 397.5,100.5C 397.5,94.8333 397.5,89.1667 397.5,83.5 Z"/></g>
<g><path style="opacity:0.705" fill="#637882" d="M 419.5,83.5 C 422.157,83.162 424.49,83.8287 426.5,85.5C 425.462,87.7644 423.962,88.0978 422,86.5C 420.72,86.6135 419.887,87.2801 419.5,88.5C 421.427,90.1019 423.594,91.4353 426,92.5C 426.677,100.269 423.177,102.935 415.5,100.5C 415.632,96.0365 417.299,95.3698 420.5,98.5C 424.146,95.8461 423.479,94.0128 418.5,93C 414.561,89.3802 414.894,86.2135 419.5,83.5 Z"/></g>
</svg>
